<svg width="56" height="56" viewBox="0 0 56 56" fill="none" xmlns="http://www.w3.org/2000/svg">
<path d="M50.9955 22.4375V50.8713C50.9955 51.4944 50.474 51.9992 49.8297 51.9992H5.16579C4.5215 51.9992 4 51.4944 4 50.8713V22.4375" stroke="#7D8998" stroke-width="2" stroke-linejoin="round"/>
<path d="M15.385 14.2109L4 22.4382L26.7701 40.4087C27.1733 40.7043 27.8237 40.7043 28.2269 40.4087L50.9955 22.4382L41.5652 16.0001" stroke="#7D8998" stroke-width="2" stroke-linejoin="round"/>
<path d="M33.5625 36.082L50.2383 51.2419" stroke="#7D8998" stroke-width="2" stroke-linejoin="round"/>
<path d="M4.75781 51.2419L21.4336 36.082" stroke="#7D8998" stroke-width="2" stroke-linejoin="round"/>
<path d="M28.3992 20.6801V24.8L34.5627 20.6801H39.8223C40.2936 20.6801 40.7456 20.5263 41.0788 20.2526C41.4121 19.9789 41.5993 19.6077 41.5993 19.2206V5.45951C41.5993 5.07242 41.4121 4.7012 41.0788 4.42749C40.7456 4.15378 40.2936 4 39.8223 4H16.9761C16.5049 4 16.0529 4.15378 15.7197 4.42749C15.3864 4.7012 15.1992 5.07242 15.1992 5.45951V19.1956C15.1992 19.5893 15.3897 19.9669 15.7286 20.2453C16.0676 20.5237 16.5273 20.6801 17.0066 20.6801H28.3992Z" stroke="#7D8998" stroke-width="2" stroke-linejoin="round"/>
<path d="M19.8914 15.043V10.12L18.2894 10.624V9.59797L20.0444 8.80597H21.2234V15.043H19.8914ZM23.3828 9.37297C23.7188 9.11497 24.0458 8.93197 24.3638 8.82397C24.6878 8.70997 25.0448 8.65297 25.4348 8.65297C26.0048 8.65297 26.4608 8.81197 26.8028 9.12997C27.1508 9.44797 27.3248 9.86797 27.3248 10.39C27.3248 10.702 27.2378 11.026 27.0638 11.362C26.8898 11.698 26.6138 12.079 26.2358 12.505C25.8578 12.925 25.3508 13.423 24.7148 13.999H27.5768V15.043H23.2208V14.071C23.9888 13.297 24.5618 12.694 24.9398 12.262C25.3238 11.824 25.5878 11.473 25.7318 11.209C25.8818 10.945 25.9568 10.702 25.9568 10.48C25.9568 10.252 25.8878 10.075 25.7498 9.94897C25.6118 9.81697 25.4258 9.75097 25.1918 9.75097C24.9278 9.75097 24.6398 9.81097 24.3278 9.93097C24.0158 10.051 23.7008 10.222 23.3828 10.444V9.37297ZM30.8432 11.407C31.4192 11.437 31.8722 11.608 32.2022 11.92C32.5322 12.232 32.6972 12.643 32.6972 13.153C32.6972 13.549 32.5982 13.9 32.4002 14.206C32.2082 14.512 31.9262 14.752 31.5542 14.926C31.1822 15.094 30.7472 15.178 30.2492 15.178C29.6852 15.178 29.1182 15.055 28.5482 14.809V13.792C29.2202 14.02 29.7722 14.134 30.2042 14.134C30.5882 14.134 30.8792 14.053 31.0772 13.891C31.2812 13.723 31.3832 13.48 31.3832 13.162C31.3832 12.88 31.2902 12.673 31.1042 12.541C30.9182 12.403 30.6302 12.334 30.2402 12.334C30.1622 12.334 30.0272 12.343 29.8352 12.361C29.6492 12.373 29.5052 12.385 29.4032 12.397V11.569L31.0142 9.83197H28.6292V8.80597H32.4272V9.79597L30.8432 11.407ZM36.3777 15.043V13.81H33.4707V12.847L36.2967 8.80597H37.5207V12.802H38.3127V13.81H37.5207V15.043H36.3777ZM36.3777 12.802V10.408L34.7037 12.802H36.3777Z" fill="#0972D3"/>
</svg>
